<?xml version="1.0" encoding="UTF-8"?>
<!-- Created with Inkscape (http://www.inkscape.org/) -->
<svg width="130.2mm" height="72.5mm" version="1.1" viewBox="0 0 130.2 72.5" xml:space="preserve" xmlns="http://www.w3.org/2000/svg"><g transform="translate(-22.52 -95.025)" stroke-width="0"><g fill="#00f"><path d="m25.869 148.91c2.9086-2.9127 5.9929-5.6713 9.0578-8.4242 3.9983-3.647 7.8678-7.4294 11.826-11.119l-3.0028-1.8473c-3.812 3.8158-7.6121 7.649-11.692 11.183-3.1746 2.7251-6.3541 5.4484-9.5377 8.1602z"/><path d="m45.032 128.69c1.0239 3.1686 2.5607 6.1139 4.1339 9.035 2.1228 3.7626 4.0208 7.6708 6.6435 11.117 1.6233 1.7126 0.8189 0.89774 2.4076 2.4502l3.4152 1.4069c-1.6316-1.5464-0.80662-0.7413-2.4712-2.419-2.6944-3.419-4.644-7.3263-6.7739-11.108-1.4883-2.8205-3.0221-5.6745-3.7718-8.7987z"/><path d="m61.203 150.2c2.898-1.829 5.7504-3.7068 8.4764-5.7858 4.1263-3.3928 6.8648-8.0136 9.5621-12.541 2.3519-4.3648 4.7197-8.727 6.7777-13.24 0.9703-2.0768 0.48699-1.0798 1.4444-2.9936l-3.2245-1.8303c-0.91138 1.9509-0.45046 0.9372-1.3783 3.0432-1.9963 4.5287-4.2172 8.9566-6.5883 13.3-2.6913 4.4893-5.5187 8.9999-9.6318 12.341-2.7634 2.0664-5.632 3.9842-8.7081 5.5597z"/><path d="m85.844 114.38c0.66467 1.9636 1.5508 3.8405 2.4348 5.7127 1.6141 3.4024 4.1947 6.1869 6.8018 8.8522 1.1554 1.393 2.7038 2.3897 3.8829 3.7562 0.23614 0.27368 0.74836 0.99549 0.97545 1.3102l3.5399 1.5301c-0.3394-0.45624-0.64718-0.93688-1.0096-1.375-1.1876-1.4358-2.8325-2.3962-4.029-3.8279-2.6032-2.5994-5.1707-5.3367-6.7593-8.6972-0.85377-1.8112-1.7026-3.6365-2.2696-5.561z"/><path d="m103.47 133.88c1.1287-0.7236 1.9245-1.8032 2.8106-2.7803 0.87142-0.96092 1.7792-1.8883 2.658-2.8425 3.607-3.9907 7.4964-7.714 11.118-11.689 3.1664-3.4454 5.3864-7.5082 7.4777-11.65 1.2189-2.3284 2.2701-4.6993 2.8336-7.2705 0.0645-0.26724 0.12901-0.53449 0.19351-0.80174l-3.384-1.8222c-0.0604 0.27335-0.12084 0.54671-0.18126 0.82006-0.47813 2.566-1.4796 4.9393-2.602 7.2888-1.9985 4.154-4.2504 8.1526-7.3355 11.619-3.6044 3.9961-7.4606 7.7543-11.186 11.636-0.92378 0.93084-1.8664 1.843-2.7844 2.7795-0.92019 0.9388-1.7746 1.9647-2.945 2.6103z"/><path d="m128.16 97.185c0.78983 3.1283 2.1328 6.0444 3.6553 8.8731 1.3511 2.4356 2.952 4.7502 4.9448 6.7088 1.3505 1.3274 1.8793 1.6472 3.3955 2.7901 4.0905 2.4017 8.1009 5.0836 12.56 6.7552l-2.9292-2.2972c-1.5-0.59254-1.2715-0.46211-2.7325-1.2046-0.49584-0.25197-1.5952-1.3226-1.4753-0.77953 0.12876 0.58341 2.0967 1.0935 1.5147 0.95821-1.3569-0.31542-2.2509-1.8028-3.6079-2.1094-1.481-1.089-2.0864-1.4594-3.4127-2.7287-1.9992-1.9134-3.5989-4.2047-4.9483-6.6088-1.4924-2.7449-2.8969-5.5784-3.4193-8.6917z"/></g><g fill="#020408"><path d="m26.618 145.53c0.84134 1.6451 1.2916 3.4064 1.6151 5.2144 0.41618 2.4358 0.35515 4.895 0.0862 7.3403-0.31994 2.5068-1.2151 4.871-1.9189 7.2828l3.3375 1.8165c0.65182-2.4517 1.5632-4.8346 1.8958-7.3628 0.29044-2.4664 0.40984-4.9447 0.01823-7.41-0.31769-1.7869-0.69256-3.5571-1.4571-5.2147z"/><path d="m51.056 144.33c-0.37385 1.73-0.84702 3.4221-1.1329 5.1733-0.4147 2.5398-0.40242 5.1193-0.43923 7.6847-0.0492 2.5003 0.38978 4.923 1.004 7.3306l3.4551 1.6473c-0.67774-2.3841-1.2054-4.7767-1.1345-7.2782 0.03297-2.5427 0.08101-5.0938 0.45098-7.6144 0.29299-1.7222 0.76468-3.3781 1.267-5.0477z"/><path d="m66.474 144.19c0.04754 1.4243 0.05353 2.8497 0.06567 4.2746 0.07297 2.0944-0.31611 4.1571-0.65642 6.2129-0.30803 1.6709-0.76769 3.2907-1.4383 4.8498-0.31605 1.1704-0.99097 2.0761-1.7453 2.9924-0.48718 0.46493-0.23575 0.25288-0.75099 0.64004l3.3076 2.0808c0.53551-0.44168 0.27293-0.20367 0.78467-0.71738 0.77447-0.94032 1.4601-1.9046 1.785-3.1014 0.64788-1.603 1.1082-3.2613 1.4175-4.9641 0.32351-2.0753 0.76448-4.1498 0.69257-6.2625 0.01206-1.4026 0.01762-2.8058 0.06568-4.2077z"/><path d="m93.945 130.2c-0.2405 2.2827-0.30354 4.5795-0.37097 6.8724-0.06158 3.2978-0.10687 6.5946 0.19057 9.8817 0.30732 3.1774 1.2549 6.2118 2.2779 9.2173 0.6994 1.8605 1.5483 3.6546 2.4798 5.4084 0.13338 0.21521 0.26677 0.43043 0.40015 0.64565l3.5318 1.5518c-0.13977-0.20862-0.27954-0.41723-0.41931-0.62585-0.99821-1.7336-1.8196-3.5598-2.6096-5.3966-1.0598-2.9848-2.0359-5.9991-2.376-9.1654-0.31613-3.2644-0.24122-6.5318-0.1438-9.8072 0.06431-2.2464 0.11148-4.5107 0.50872-6.7279z"/><path d="m112.22 123.32c0.1968 2.3568-0.0568 4.6959-0.36554 7.0301-0.47119 3.5794-1.1477 7.1272-2.0654 10.618-0.63243 2.4617-1.2027 4.9326-1.8771 7.383-0.49475 1.7751-1.2804 3.4455-1.7091 5.24-0.32302 1.045-0.62458 2.103-1.0099 3.1267-0.34414 0.9667-1.0433 1.6232-1.7161 2.3546-0.41394 0.54767-0.20602 0.2875-0.62134 0.78245l3.3536 2.0108c0.40742-0.50383 0.20699-0.24795 0.60114-0.76776 0.71374-0.76274 1.4258-1.4771 1.8024-2.4816 0.38364-1.0456 0.68476-2.1244 0.9877-3.196 0.40003-1.8007 1.1285-3.4901 1.6473-5.2564 0.66467-2.4654 1.1807-4.9565 1.7842-7.4375 0.91845-3.5108 1.5317-7.0838 2.047-10.675 0.36272-2.2992 0.6787-4.6008 0.67022-6.9337z"/><path d="m142.39 119.19c-0.73789 2.5331-1.6427 5.012-2.312 7.5641-0.84773 3.4831-1.0418 7.041-0.81882 10.605 0.29989 3.5386 1.383 6.9277 2.3484 10.323 1.0536 3.1694 2.2782 6.2756 3.6069 9.3386 0.9879 2.3528 1.9118 4.7317 3.0126 7.035 0.26384 0.57257 0.50035 1.1545 0.82499 1.6954l3.6144 1.5412c-0.48733-0.45545-0.67587-1.0701-0.96732-1.6629-1.1609-2.2985-2.1197-4.6801-3.104-7.0586-1.3526-3.0526-2.6178-6.1449-3.6758-9.3133-0.92795-3.3883-2.0775-6.7449-2.4022-10.265-0.23326-3.5194-0.0238-7.0376 0.80312-10.479 0.68364-2.5279 1.5321-5.0203 2.5363-7.4382z"/><path d="m31.42 166.75c2.2563 0.0113 4.5016-0.16495 6.7502-0.32937 2.0184-0.0522 4.0063-0.39334 6.007-0.62795 1.4222-0.16676 2.8541-0.20065 4.2843-0.22433 1.0175-0.0104 2.035-5e-3 3.0525-7.9e-4l-3.1297-2.2741c-1.0129 4e-3 -2.0257 8e-3 -3.0386 0.0175-1.4389 0.0152-2.8782 0.0527-4.3046 0.26216-1.9717 0.26152-3.9363 0.5746-5.9266 0.66259-2.2905 0.18083-4.582 0.32984-6.8803 0.19956z"/><path d="m69.212 165.84c2.5675-0.089 5.1375-0.0838 7.7062-0.0773 2.3193-0.0645 4.6515 0.15752 6.9652-0.04 1.4826-0.21931 2.971-0.35833 4.4675-0.42915 1.6236-0.0293 3.2352-0.0481 4.8487-0.23861 1.3718-0.18349 2.7515-0.28418 4.134-0.33519 0.74995-0.0219 1.5002-0.0239 2.2504-0.0275l-3.1535-2.2884c-0.74952 5e-3 -1.4991 0.0135-2.2481 0.0465-1.3792 0.0644-2.7524 0.19879-4.1214 0.37881-1.6114 0.18106-3.225 0.15348-4.8439 0.21261-1.4921 0.0862-2.9765 0.22915-4.455 0.45055-2.2724 0.16435-4.559 0.0315-6.8353 0.097-2.6397 7e-3 -5.2805 9e-3 -7.9191-0.0773z"/><path d="m108.13 160.99c3.08 0.26023 6.1554 0.5911 9.2378 0.84343 3.6351 0.16317 7.2267 0.73724 10.802 1.3786 4.1392 0.95758 8.243 2.0604 12.355 3.1273 2.0051 0.51383 4.0285 0.97686 6.0952 1.1415 0.79163 0.0352 0.4023 0.0221 1.168 0.0399l-3.145-2.2976c-0.74984-0.022-0.36884-6e-3 -1.1429-0.0491-1.9885-0.17446-3.9449-0.57408-5.8802-1.0582-4.1111-1.0308-8.2037-2.1377-12.336-3.0793-3.6037-0.64287-7.225-1.2406-10.889-1.3978-3.1501-0.22978-6.2822-0.60083-9.4206-0.94098z"/></g></g></svg>
